<mxfile host="app.diagrams.net" agent="Mozilla/5.0 (X11; Linux x86_64; rv:138.0) Gecko/20100101 Firefox/138.0" version="27.0.5">
  <diagram name="Page-1" id="m1nXPS4sxg8PjEjzXNv2">
    <mxGraphModel dx="556" dy="-262" grid="1" gridSize="10" guides="1" tooltips="1" connect="1" arrows="1" fold="1" page="1" pageScale="1" pageWidth="500" pageHeight="300" math="0" shadow="0">
      <root>
        <mxCell id="0" />
        <mxCell id="1" parent="0" />
        <mxCell id="AmhfL2q_r5CY9x25Y5nY-2" value="&lt;div&gt;CPU 0&lt;/div&gt;" style="rounded=1;whiteSpace=wrap;html=1;fillColor=#e51400;fontColor=#ffffff;strokeColor=#B20000;" vertex="1" parent="1">
          <mxGeometry x="85" y="670" width="80" height="50" as="geometry" />
        </mxCell>
        <mxCell id="AmhfL2q_r5CY9x25Y5nY-5" value="GPU 0" style="shape=hexagon;perimeter=hexagonPerimeter2;whiteSpace=wrap;html=1;fixedSize=1;fillColor=#008a00;fontColor=#ffffff;strokeColor=#005700;" vertex="1" parent="1">
          <mxGeometry x="80" y="760" width="90" height="50" as="geometry" />
        </mxCell>
        <mxCell id="AmhfL2q_r5CY9x25Y5nY-6" value="GPU 1" style="shape=hexagon;perimeter=hexagonPerimeter2;whiteSpace=wrap;html=1;fixedSize=1;fillColor=#008a00;fontColor=#ffffff;strokeColor=#005700;" vertex="1" parent="1">
          <mxGeometry x="305" y="760" width="90" height="50" as="geometry" />
        </mxCell>
        <mxCell id="AmhfL2q_r5CY9x25Y5nY-8" value="&lt;div&gt;CPU 1&lt;/div&gt;" style="rounded=1;whiteSpace=wrap;html=1;fillColor=#e51400;fontColor=#ffffff;strokeColor=#B20000;" vertex="1" parent="1">
          <mxGeometry x="310" y="670" width="80" height="50" as="geometry" />
        </mxCell>
        <mxCell id="AmhfL2q_r5CY9x25Y5nY-9" value="" style="endArrow=classic;html=1;rounded=0;entryX=0.313;entryY=1;entryDx=0;entryDy=0;entryPerimeter=0;fillColor=#0050ef;strokeColor=#001DBC;" edge="1" parent="1" target="AmhfL2q_r5CY9x25Y5nY-2">
          <mxGeometry width="50" height="50" relative="1" as="geometry">
            <mxPoint x="110" y="760" as="sourcePoint" />
            <mxPoint x="160" y="710" as="targetPoint" />
          </mxGeometry>
        </mxCell>
        <mxCell id="AmhfL2q_r5CY9x25Y5nY-10" value="" style="endArrow=classic;html=1;rounded=0;entryX=0.313;entryY=1;entryDx=0;entryDy=0;entryPerimeter=0;fillColor=#0050ef;strokeColor=#001DBC;" edge="1" parent="1">
          <mxGeometry width="50" height="50" relative="1" as="geometry">
            <mxPoint x="120" y="760" as="sourcePoint" />
            <mxPoint x="120" y="720" as="targetPoint" />
          </mxGeometry>
        </mxCell>
        <mxCell id="AmhfL2q_r5CY9x25Y5nY-11" value="" style="endArrow=classic;html=1;rounded=0;entryX=0.313;entryY=1;entryDx=0;entryDy=0;entryPerimeter=0;fillColor=#0050ef;strokeColor=#001DBC;" edge="1" parent="1">
          <mxGeometry width="50" height="50" relative="1" as="geometry">
            <mxPoint x="130" y="760" as="sourcePoint" />
            <mxPoint x="130" y="720" as="targetPoint" />
          </mxGeometry>
        </mxCell>
        <mxCell id="AmhfL2q_r5CY9x25Y5nY-12" value="" style="endArrow=classic;html=1;rounded=0;entryX=0.313;entryY=1;entryDx=0;entryDy=0;entryPerimeter=0;fillColor=#0050ef;strokeColor=#001DBC;" edge="1" parent="1">
          <mxGeometry width="50" height="50" relative="1" as="geometry">
            <mxPoint x="140" y="760" as="sourcePoint" />
            <mxPoint x="140" y="720" as="targetPoint" />
          </mxGeometry>
        </mxCell>
        <mxCell id="AmhfL2q_r5CY9x25Y5nY-15" value="" style="endArrow=classic;html=1;rounded=0;entryX=0;entryY=0.2;entryDx=0;entryDy=0;entryPerimeter=0;fillColor=#fa6800;strokeColor=#C73500;" edge="1" parent="1" target="AmhfL2q_r5CY9x25Y5nY-8">
          <mxGeometry width="50" height="50" relative="1" as="geometry">
            <mxPoint x="165" y="680" as="sourcePoint" />
            <mxPoint x="165" y="640" as="targetPoint" />
          </mxGeometry>
        </mxCell>
        <mxCell id="AmhfL2q_r5CY9x25Y5nY-16" value="" style="endArrow=classic;html=1;rounded=0;entryX=0;entryY=0.2;entryDx=0;entryDy=0;entryPerimeter=0;fillColor=#fa6800;strokeColor=#C73500;" edge="1" parent="1">
          <mxGeometry width="50" height="50" relative="1" as="geometry">
            <mxPoint x="165" y="690" as="sourcePoint" />
            <mxPoint x="310" y="690" as="targetPoint" />
          </mxGeometry>
        </mxCell>
        <mxCell id="AmhfL2q_r5CY9x25Y5nY-17" value="" style="endArrow=classic;html=1;rounded=0;entryX=0;entryY=0.2;entryDx=0;entryDy=0;entryPerimeter=0;fillColor=#fa6800;strokeColor=#C73500;" edge="1" parent="1">
          <mxGeometry width="50" height="50" relative="1" as="geometry">
            <mxPoint x="165" y="700" as="sourcePoint" />
            <mxPoint x="310" y="700" as="targetPoint" />
          </mxGeometry>
        </mxCell>
        <mxCell id="AmhfL2q_r5CY9x25Y5nY-18" value="" style="endArrow=classic;html=1;rounded=0;entryX=0;entryY=0.2;entryDx=0;entryDy=0;entryPerimeter=0;fillColor=#fa6800;strokeColor=#C73500;" edge="1" parent="1">
          <mxGeometry width="50" height="50" relative="1" as="geometry">
            <mxPoint x="165" y="710" as="sourcePoint" />
            <mxPoint x="310" y="710" as="targetPoint" />
          </mxGeometry>
        </mxCell>
        <mxCell id="AmhfL2q_r5CY9x25Y5nY-20" value="" style="endArrow=none;html=1;rounded=0;entryX=0.313;entryY=1;entryDx=0;entryDy=0;entryPerimeter=0;startArrow=classicThin;startFill=1;fillColor=#0050ef;strokeColor=#001DBC;" edge="1" parent="1">
          <mxGeometry width="50" height="50" relative="1" as="geometry">
            <mxPoint x="334.9" y="760" as="sourcePoint" />
            <mxPoint x="334.9" y="720" as="targetPoint" />
          </mxGeometry>
        </mxCell>
        <mxCell id="AmhfL2q_r5CY9x25Y5nY-21" value="" style="endArrow=none;html=1;rounded=0;entryX=0.313;entryY=1;entryDx=0;entryDy=0;entryPerimeter=0;startArrow=classicThin;startFill=1;fillColor=#0050ef;strokeColor=#001DBC;" edge="1" parent="1">
          <mxGeometry width="50" height="50" relative="1" as="geometry">
            <mxPoint x="344.9" y="760" as="sourcePoint" />
            <mxPoint x="344.9" y="720" as="targetPoint" />
          </mxGeometry>
        </mxCell>
        <mxCell id="AmhfL2q_r5CY9x25Y5nY-22" value="" style="endArrow=none;html=1;rounded=0;entryX=0.313;entryY=1;entryDx=0;entryDy=0;entryPerimeter=0;startArrow=classicThin;startFill=1;fillColor=#0050ef;strokeColor=#001DBC;" edge="1" parent="1">
          <mxGeometry width="50" height="50" relative="1" as="geometry">
            <mxPoint x="354.9" y="760" as="sourcePoint" />
            <mxPoint x="354.9" y="720" as="targetPoint" />
          </mxGeometry>
        </mxCell>
        <mxCell id="AmhfL2q_r5CY9x25Y5nY-23" value="" style="endArrow=none;html=1;rounded=0;entryX=0.313;entryY=1;entryDx=0;entryDy=0;entryPerimeter=0;startArrow=classicThin;startFill=1;fillColor=#0050ef;strokeColor=#001DBC;" edge="1" parent="1">
          <mxGeometry width="50" height="50" relative="1" as="geometry">
            <mxPoint x="364.9" y="760" as="sourcePoint" />
            <mxPoint x="364.9" y="720" as="targetPoint" />
          </mxGeometry>
        </mxCell>
        <mxCell id="AmhfL2q_r5CY9x25Y5nY-24" value="" style="endArrow=none;html=1;rounded=0;exitX=0.5;exitY=0;exitDx=0;exitDy=0;fillColor=#0050ef;strokeColor=#001DBC;" edge="1" parent="1" source="AmhfL2q_r5CY9x25Y5nY-5">
          <mxGeometry width="50" height="50" relative="1" as="geometry">
            <mxPoint x="170" y="730" as="sourcePoint" />
            <mxPoint x="125" y="720" as="targetPoint" />
          </mxGeometry>
        </mxCell>
        <mxCell id="AmhfL2q_r5CY9x25Y5nY-25" value="" style="endArrow=none;html=1;rounded=0;exitX=1;exitY=0.5;exitDx=0;exitDy=0;entryX=0;entryY=0.5;entryDx=0;entryDy=0;fillColor=#fa6800;strokeColor=#C73500;" edge="1" parent="1" source="AmhfL2q_r5CY9x25Y5nY-2" target="AmhfL2q_r5CY9x25Y5nY-8">
          <mxGeometry width="50" height="50" relative="1" as="geometry">
            <mxPoint x="170" y="730" as="sourcePoint" />
            <mxPoint x="220" y="680" as="targetPoint" />
          </mxGeometry>
        </mxCell>
        <mxCell id="AmhfL2q_r5CY9x25Y5nY-26" value="" style="endArrow=none;html=1;rounded=0;entryX=0.5;entryY=1;entryDx=0;entryDy=0;exitX=0.5;exitY=0;exitDx=0;exitDy=0;fillColor=#0050ef;strokeColor=#001DBC;" edge="1" parent="1" source="AmhfL2q_r5CY9x25Y5nY-6" target="AmhfL2q_r5CY9x25Y5nY-8">
          <mxGeometry width="50" height="50" relative="1" as="geometry">
            <mxPoint x="170" y="730" as="sourcePoint" />
            <mxPoint x="220" y="680" as="targetPoint" />
          </mxGeometry>
        </mxCell>
        <mxCell id="AmhfL2q_r5CY9x25Y5nY-31" value="" style="endArrow=none;html=1;rounded=0;exitX=1;exitY=0.5;exitDx=0;exitDy=0;entryX=0;entryY=0.5;entryDx=0;entryDy=0;fillColor=#6a00ff;strokeColor=#3700CC;" edge="1" parent="1" source="AmhfL2q_r5CY9x25Y5nY-5" target="AmhfL2q_r5CY9x25Y5nY-6">
          <mxGeometry width="50" height="50" relative="1" as="geometry">
            <mxPoint x="170" y="730" as="sourcePoint" />
            <mxPoint x="220" y="680" as="targetPoint" />
          </mxGeometry>
        </mxCell>
      </root>
    </mxGraphModel>
  </diagram>
</mxfile>
